<?xml version="1.0" encoding="utf-8"?>
<!-- Generator: Adobe Illustrator 19.1.1, SVG Export Plug-In . SVG Version: 6.00 Build 0)  -->
<svg version="1.1" id="Laag_1_kopie" xmlns="http://www.w3.org/2000/svg" xmlns:xlink="http://www.w3.org/1999/xlink" x="0px"
	 y="0px" viewBox="0 0 231 22.7" style="enable-background:new 0 0 231 22.7;" xml:space="preserve">
<style type="text/css">
	.st0{fill:#000000;}
	.st1{fill:#00AC5B;}
</style>
<g>
	<g>
		<g>
			<path class="st0" d="M15.6,5.7c-2.7,0-4.3-0.9-3.1-3.5c0.1-0.2,0.3-0.5-0.1-0.4c-1.7,0.5-7.1,3.2,0.3,6C11.9,7.9,11.1,8,10,8
				C8.3,8,5.9,7.5,5.6,7.4c-0.6-0.2-0.6,0.4-0.1,1c1.5,1.7,6.6,3.3,10.6,2.9c2.2-0.2,4.7-1.9,4.7-1.9c-0.6-0.4-1.8,0.1-2.3,0.2
				c-1.7,0.5-3,0-3.4-0.6c0.3-0.1,0.7-0.2,1-0.4c8.5-3.6,11.2-4,19.4-1.4c-6.1-0.9-12.3,2.1-15.1,4.1c-1.1,0.7-1,1.4-0.1,1
				c0.9-0.4,1.4-0.7,2.1-0.8c0.9-0.1,2.1,0.6,2.7,0.8c2.8,1.3,6.2-2.1,7.5-2.9c1.1-0.7,2.4-1.5,3.7-0.6c0,0,1.6-0.4,2.9-0.7
				C23.9,0,19.8,5.7,15.6,5.7z"/>
			<path class="st0" d="M64.5,9.8c-1.4,1.5-3.7,2.9-6.8,3c-3.7,0.1-5.6-0.1-10.1-2.1c0.9-1.2,1.2-2.5,1.3-3.9
				c0.1-1.9-0.8-3.5-2.5-4.6c-1.8-1.1-2.9-1.7-2.9-1.7C44.3,1,44.9,2.3,45.1,4c0.3,2.2-0.3,5-2.9,6.7l3.4,6
				c-2.6-0.3-4.3,1.1-4.3,1.1l3.3,2.8c0,0,2.8-1.8,7.2-0.9l-5.3-7.4c4,2.2,10.3,3.5,10.3,3.5s-2.3,0-4.2-0.5c-0.6-0.2-1.1,0-0.3,0.4
				c0.2,0.1,2.6,1.3,4.9,1.6c4.1,0.4,5.7-1.2,6-1.7c0.5-0.8-0.7-0.4-2.8-0.4c-2.1,0-4.2-0.7-5.2-1.2c3.6,0,10.1-0.7,10.3-2.8
				C65.6,10.8,65.2,10,64.5,9.8z"/>
			<path class="st0" d="M38.5,12l-2.3,0.5V19c0,0-1.7,1.3-3.7,0.8l3.3,2.8c2.4,0.5,3.9-1,3.9-1v-7L38.5,12z"/>
			<path class="st1" d="M39.2,8.2c-1.3,0.4-2.9,0.7-2.9,0.7c-1.2-0.8-2.6-0.1-3.7,0.6v10.2c2,0.5,3.7-0.8,3.7-0.8v-6.4l2.3-0.5
				l1.3,2.6l1.6,3.2c0,0,1.8-1.4,4.3-1.1l-3.4-6C44.9,9,45.4,6.2,45.1,4c-0.2-1.6-0.8-2.9-1.7-3.4C43,0.3,42-0.3,39.8,0.2l-7.2,1.7
				l0,0c1.5,0.6,3.7,2.2,3.7,2.2s0,0,3.2-0.8c0.2,0,1.4-0.3,1.8,0.7c0.1,0.3,0.2,0.5,0.2,0.8c0.1,0.7,0,1.4-0.2,1.9
				c-0.1,0.3-0.3,0.5-0.5,0.7c-0.1,0.1-0.2,0.2-0.3,0.2C40.1,7.9,39.7,8,39.2,8.2z"/>
			<path class="st0" d="M36.3,4.1c0,0-2.1-1.6-3.7-2.2c-0.8-0.3-1.2-0.4-2-0.5c-1.3-0.1-2.4,1.1-1.1,1.2c2.6,0.2,6.9,2.5,11.2,4.8
				c0.2-0.2,0.4-0.4,0.5-0.7c-0.6-0.3-1.6-0.9-2.3-1.3c0,0,1.6-0.4,2.6-0.7c0-0.3-0.1-0.6-0.2-0.8c-0.4-1-1.6-0.8-1.8-0.7
				C36.3,4.1,36.3,4.1,36.3,4.1z"/>
			<path class="st0" d="M1.7,4c-1.3-0.8-2.2,0.2-1.5,1c0.6,0.6,0.8,0.2,2.3,1C3.2,6.2,3.6,6.9,3.3,6C2.9,5,2.5,4.4,1.7,4z"/>
		</g>
	</g>
	<g>
		<g>
			<g>
				<g>
					<path class="st0" d="M82,9.4h-2.4V7.7h4.5v4.1c-0.4,0.4-1.1,0.8-1.9,1.1c-0.8,0.3-1.7,0.5-2.5,0.5c-1.1,0-2-0.2-2.8-0.7
						c-0.8-0.5-1.4-1.1-1.8-1.9C74.7,9.9,74.5,9,74.5,8c0-1.1,0.2-2,0.7-2.9c0.4-0.8,1.1-1.5,2-1.9c0.7-0.3,1.5-0.5,2.5-0.5
						c1.3,0,2.3,0.3,3,0.8c0.7,0.5,1.2,1.3,1.4,2.2l-2.1,0.4c-0.1-0.5-0.4-0.9-0.8-1.2c-0.4-0.3-0.9-0.4-1.5-0.4
						c-0.9,0-1.6,0.3-2.2,0.9C76.9,6,76.6,6.8,76.6,8c0,1.2,0.3,2.1,0.8,2.7c0.5,0.6,1.3,0.9,2.1,0.9c0.4,0,0.9-0.1,1.3-0.3
						c0.4-0.2,0.8-0.4,1.1-0.6V9.4z"/>
					<path class="st0" d="M88.6,7.6c0.3-0.3,0.6-0.5,1.1-0.5c0.4,0,0.7,0.1,1,0.4c0.3,0.3,0.4,0.7,0.4,1.3h-2.9
						C88.2,8.3,88.3,7.9,88.6,7.6z M90.5,11.6c-0.2,0.2-0.5,0.3-0.8,0.3c-0.5,0-0.8-0.2-1.1-0.5c-0.3-0.3-0.5-0.8-0.5-1.4h4.9
						c0-1.5-0.3-2.6-0.9-3.4c-0.6-0.7-1.5-1.1-2.6-1.1c-1,0-1.8,0.3-2.4,1c-0.6,0.7-1,1.7-1,2.9c0,1,0.2,1.9,0.7,2.6
						c0.6,0.8,1.6,1.3,2.9,1.3c0.8,0,1.5-0.2,2-0.6c0.5-0.4,0.9-0.9,1.2-1.6l-2-0.3C90.9,11.2,90.8,11.5,90.5,11.6z"/>
					<path class="st0" d="M95.3,13.2V5.8h1.8v1c0.6-0.8,1.4-1.2,2.3-1.2c0.5,0,0.9,0.1,1.2,0.3c0.4,0.2,0.6,0.5,0.9,0.9
						c0.3-0.4,0.7-0.7,1.1-0.9c0.4-0.2,0.8-0.3,1.2-0.3c0.5,0,1,0.1,1.4,0.3c0.4,0.2,0.7,0.5,0.8,1c0.1,0.3,0.2,0.8,0.2,1.5v4.8h-2
						V9c0-0.7-0.1-1.2-0.2-1.4c-0.2-0.3-0.5-0.4-0.8-0.4c-0.3,0-0.5,0.1-0.8,0.3c-0.2,0.2-0.4,0.4-0.5,0.7c-0.1,0.3-0.2,0.8-0.2,1.5
						v3.6h-2V9.1c0-0.7,0-1.2-0.1-1.4c-0.1-0.2-0.2-0.4-0.3-0.5c-0.1-0.1-0.3-0.2-0.6-0.2c-0.3,0-0.6,0.1-0.8,0.2
						c-0.2,0.2-0.4,0.4-0.5,0.7c-0.1,0.3-0.2,0.8-0.2,1.5v3.6H95.3z"/>
					<path class="st0" d="M110.8,7.6c0.3-0.3,0.6-0.5,1.1-0.5c0.4,0,0.7,0.1,1,0.4c0.3,0.3,0.4,0.7,0.4,1.3h-2.9
						C110.4,8.3,110.5,7.9,110.8,7.6z M112.7,11.6c-0.2,0.2-0.5,0.3-0.8,0.3c-0.5,0-0.8-0.2-1.1-0.5c-0.3-0.3-0.5-0.8-0.5-1.4h4.9
						c0-1.5-0.3-2.6-0.9-3.4c-0.6-0.7-1.5-1.1-2.6-1.1c-1,0-1.8,0.3-2.4,1c-0.6,0.7-1,1.7-1,2.9c0,1,0.2,1.9,0.7,2.6
						c0.6,0.8,1.6,1.3,2.9,1.3c0.8,0,1.5-0.2,2-0.6c0.5-0.4,0.9-0.9,1.2-1.6l-2-0.3C113.1,11.2,112.9,11.5,112.7,11.6z"/>
					<path class="st0" d="M119.5,7.6c0.3-0.3,0.6-0.5,1.1-0.5c0.4,0,0.7,0.1,1,0.4c0.3,0.3,0.4,0.7,0.4,1.3h-2.9
						C119.1,8.3,119.2,7.9,119.5,7.6z M121.4,11.6c-0.2,0.2-0.5,0.3-0.8,0.3c-0.5,0-0.8-0.2-1.1-0.5c-0.3-0.3-0.5-0.8-0.5-1.4h4.9
						c0-1.5-0.3-2.6-0.9-3.4c-0.6-0.7-1.5-1.1-2.6-1.1c-1,0-1.8,0.3-2.4,1c-0.6,0.7-1,1.7-1,2.9c0,1,0.2,1.9,0.7,2.6
						c0.6,0.8,1.6,1.3,2.9,1.3c0.8,0,1.5-0.2,2-0.6c0.5-0.4,0.9-0.9,1.2-1.6l-2-0.3C121.8,11.2,121.6,11.5,121.4,11.6z"/>
					<path class="st0" d="M133.1,8.6v4.6h-2V9.4c0-0.8,0-1.3-0.1-1.6c-0.1-0.2-0.2-0.4-0.4-0.6c-0.2-0.1-0.4-0.2-0.7-0.2
						c-0.3,0-0.6,0.1-0.9,0.3c-0.3,0.2-0.5,0.4-0.6,0.7c-0.1,0.3-0.2,0.9-0.2,1.7v3.4h-2V5.8h1.8v1.1c0.7-0.8,1.5-1.3,2.5-1.3
						c0.4,0,0.8,0.1,1.2,0.2c0.4,0.2,0.6,0.4,0.8,0.6c0.2,0.2,0.3,0.5,0.4,0.8C133,7.6,133.1,8,133.1,8.6z"/>
				</g>
				<path class="st0" d="M158.5,4.7c0.8,0,1.3,0,1.5,0c0.3,0.1,0.6,0.2,0.8,0.4c0.2,0.2,0.3,0.5,0.3,0.8c0,0.3-0.1,0.6-0.2,0.8
					c-0.1,0.2-0.3,0.4-0.6,0.4c-0.3,0.1-0.9,0.1-1.9,0.1h-1.5V4.7H158.5z M156.9,8.9h0.4c0.5,0,0.8,0,1,0.1c0.2,0.1,0.4,0.2,0.6,0.4
					c0.2,0.2,0.6,0.7,1.1,1.5l1.5,2.2h2.5l-1.3-2c-0.5-0.8-0.9-1.4-1.2-1.7c-0.3-0.3-0.7-0.6-1.1-0.9c0.9-0.1,1.6-0.4,2-0.9
					c0.5-0.5,0.7-1.1,0.7-1.9c0-0.6-0.1-1.1-0.4-1.6c-0.3-0.5-0.7-0.8-1.2-1c-0.5-0.2-1.3-0.3-2.4-0.3h-4.4v10.3h2.1V8.9z"/>
				<path class="st0" d="M167.8,7.8c0.4-0.4,0.8-0.6,1.3-0.6c0.5,0,0.9,0.2,1.3,0.6c0.3,0.4,0.5,1,0.5,1.7c0,0.7-0.2,1.3-0.5,1.7
					c-0.3,0.4-0.8,0.6-1.3,0.6c-0.5,0-0.9-0.2-1.3-0.6c-0.3-0.4-0.5-1-0.5-1.7C167.3,8.7,167.5,8.2,167.8,7.8z M165.7,11.6
					c0.3,0.6,0.8,1,1.4,1.4c0.6,0.3,1.3,0.5,2,0.5c1.1,0,2-0.4,2.7-1.1c0.7-0.7,1.1-1.7,1.1-2.8c0-1.1-0.4-2-1.1-2.8
					c-0.7-0.7-1.6-1.1-2.8-1.1c-0.7,0-1.4,0.2-2,0.5c-0.6,0.3-1,0.8-1.4,1.4c-0.3,0.6-0.5,1.2-0.5,1.9
					C165.3,10.2,165.4,11,165.7,11.6z"/>
				<path class="st0" d="M177.3,5.8h1.3v1.6h-1.3v3c0,0.6,0,1,0,1.1c0,0.1,0.1,0.2,0.2,0.2c0.1,0.1,0.2,0.1,0.3,0.1
					c0.2,0,0.4-0.1,0.8-0.2l0.2,1.5c-0.5,0.2-1,0.3-1.6,0.3c-0.4,0-0.7-0.1-1-0.2c-0.3-0.1-0.5-0.3-0.6-0.5
					c-0.1-0.2-0.2-0.4-0.3-0.8c0-0.2-0.1-0.7-0.1-1.4V7.3h-0.9V5.8h0.9V4.3l2-1.1V5.8z"/>
				<path class="st0" d="M183.3,5.8h1.3v1.6h-1.3v3c0,0.6,0,1,0,1.1c0,0.1,0.1,0.2,0.2,0.2c0.1,0.1,0.2,0.1,0.3,0.1
					c0.2,0,0.4-0.1,0.8-0.2l0.2,1.5c-0.5,0.2-1,0.3-1.6,0.3c-0.4,0-0.7-0.1-1-0.2c-0.3-0.1-0.5-0.3-0.6-0.5
					c-0.1-0.2-0.2-0.4-0.3-0.8c0-0.2-0.1-0.7-0.1-1.4V7.3h-0.9V5.8h0.9V4.3l2-1.1V5.8z"/>
				<path class="st0" d="M188.8,7.6c0.3-0.3,0.6-0.5,1.1-0.5c0.4,0,0.7,0.1,1,0.4c0.3,0.3,0.4,0.7,0.4,1.3h-2.9
					C188.4,8.3,188.5,7.9,188.8,7.6z M190.8,11.6c-0.2,0.2-0.5,0.3-0.8,0.3c-0.5,0-0.8-0.2-1.1-0.5c-0.3-0.3-0.5-0.8-0.5-1.4h4.9
					c0-1.5-0.3-2.6-0.9-3.4c-0.6-0.7-1.5-1.1-2.6-1.1c-1,0-1.8,0.3-2.4,1c-0.6,0.7-1,1.7-1,2.9c0,1,0.2,1.9,0.7,2.6
					c0.6,0.8,1.6,1.3,2.9,1.3c0.8,0,1.5-0.2,2-0.6c0.5-0.4,0.9-0.9,1.2-1.6l-2-0.3C191.1,11.2,191,11.5,190.8,11.6z"/>
				<path class="st0" d="M137.8,5.8h1.3v1.6h-1.3v3c0,0.6,0,1,0,1.1c0,0.1,0.1,0.2,0.2,0.2c0.1,0.1,0.2,0.1,0.3,0.1
					c0.2,0,0.4-0.1,0.8-0.2l0.2,1.5c-0.5,0.2-1,0.3-1.6,0.3c-0.4,0-0.7-0.1-1-0.2c-0.3-0.1-0.5-0.3-0.6-0.5
					c-0.1-0.2-0.2-0.4-0.3-0.8c0-0.2-0.1-0.7-0.1-1.4V7.3H135V5.8h0.9V4.3l2-1.1V5.8z"/>
				<path class="st0" d="M143.3,7.6c0.3-0.3,0.6-0.5,1.1-0.5c0.4,0,0.7,0.1,1,0.4c0.3,0.3,0.4,0.7,0.4,1.3h-2.9
					C142.9,8.3,143.1,7.9,143.3,7.6z M145.3,11.6c-0.2,0.2-0.5,0.3-0.8,0.3c-0.5,0-0.8-0.2-1.1-0.5c-0.3-0.3-0.5-0.8-0.5-1.4h4.9
					c0-1.5-0.3-2.6-0.9-3.4c-0.6-0.7-1.5-1.1-2.6-1.1c-1,0-1.8,0.3-2.4,1c-0.6,0.7-1,1.7-1,2.9c0,1,0.2,1.9,0.7,2.6
					c0.6,0.8,1.6,1.3,2.9,1.3c0.8,0,1.5-0.2,2-0.6c0.5-0.4,0.9-0.9,1.2-1.6l-2-0.3C145.6,11.2,145.5,11.5,145.3,11.6z"/>
				<path class="st0" d="M197.5,10.9v2.3h-2V5.8h1.8v1.1c0.3-0.5,0.6-0.8,0.8-1c0.2-0.2,0.5-0.2,0.9-0.2c0.4,0,0.9,0.1,1.3,0.4
					l-0.6,1.7c-0.3-0.2-0.6-0.3-0.9-0.3c-0.3,0-0.5,0.1-0.7,0.2c-0.2,0.2-0.3,0.4-0.5,0.8C197.6,8.8,197.5,9.6,197.5,10.9z"/>
				<path class="st0" d="M204.1,7.7c0.3-0.4,0.7-0.6,1.2-0.6c0.5,0,0.9,0.2,1.2,0.6c0.3,0.4,0.5,1,0.5,1.8c0,0.8-0.2,1.3-0.5,1.7
					c-0.3,0.4-0.7,0.6-1.2,0.6c-0.6,0-1-0.3-1.3-0.8c-0.2-0.4-0.3-0.9-0.3-1.7C203.6,8.6,203.8,8,204.1,7.7z M206.9,2.9v3.7
					c-0.6-0.7-1.3-1-2.2-1c-0.9,0-1.7,0.3-2.3,1c-0.6,0.7-0.9,1.6-0.9,2.9c0,1.2,0.3,2.2,0.9,2.9c0.6,0.7,1.3,1,2.2,1
					c0.4,0,0.8-0.1,1.3-0.3c0.4-0.2,0.8-0.5,1.1-0.9v1.1h1.8V2.9H206.9z"/>
				<path class="st0" d="M215.6,11c-0.1,0.3-0.2,0.5-0.5,0.7c-0.3,0.2-0.7,0.4-1,0.4c-0.3,0-0.6-0.1-0.8-0.3
					c-0.2-0.2-0.3-0.4-0.3-0.7c0-0.3,0.1-0.5,0.4-0.7c0.2-0.1,0.5-0.2,1.1-0.3c0.5-0.1,0.9-0.2,1.2-0.3V10
					C215.6,10.5,215.6,10.8,215.6,11z M213.5,7.3c0.2-0.1,0.5-0.2,0.8-0.2c0.5,0,0.9,0.1,1.1,0.2s0.3,0.4,0.3,0.8v0.2
					c-0.4,0.2-1,0.3-1.9,0.5c-0.7,0.1-1.2,0.3-1.6,0.5c-0.4,0.2-0.6,0.4-0.8,0.8c-0.2,0.3-0.3,0.7-0.3,1.1c0,0.6,0.2,1.2,0.7,1.6
					c0.4,0.4,1,0.6,1.8,0.6c0.4,0,0.8-0.1,1.2-0.2c0.4-0.2,0.7-0.4,1.1-0.7c0,0,0,0.1,0.1,0.2c0.1,0.3,0.1,0.5,0.2,0.6h2
					c-0.2-0.4-0.3-0.7-0.4-1c-0.1-0.3-0.1-0.8-0.1-1.4l0-2.3c0-0.9-0.1-1.4-0.3-1.8c-0.2-0.3-0.5-0.6-0.9-0.8
					c-0.4-0.2-1.1-0.3-2-0.3c-1,0-1.7,0.2-2.2,0.5c-0.5,0.3-0.8,0.9-1,1.6L213,8C213.1,7.7,213.3,7.4,213.5,7.3z"/>
				<path class="st0" d="M220.1,13.2V5.8h1.8v1c0.7-0.8,1.4-1.2,2.3-1.2c0.5,0,0.9,0.1,1.2,0.3c0.4,0.2,0.6,0.5,0.9,0.9
					c0.3-0.4,0.7-0.7,1.1-0.9c0.4-0.2,0.8-0.3,1.2-0.3c0.5,0,1,0.1,1.4,0.3c0.4,0.2,0.7,0.5,0.8,1c0.1,0.3,0.2,0.8,0.2,1.5v4.8h-2V9
					c0-0.7-0.1-1.2-0.2-1.4c-0.2-0.3-0.5-0.4-0.8-0.4c-0.3,0-0.5,0.1-0.8,0.3c-0.2,0.2-0.4,0.4-0.5,0.7c-0.1,0.3-0.2,0.8-0.2,1.5
					v3.6h-2V9.1c0-0.7,0-1.2-0.1-1.4c-0.1-0.2-0.2-0.4-0.3-0.5c-0.1-0.1-0.3-0.2-0.6-0.2c-0.3,0-0.6,0.1-0.8,0.2
					c-0.2,0.2-0.4,0.4-0.5,0.7c-0.1,0.3-0.2,0.8-0.2,1.5v3.6H220.1z"/>
			</g>
		</g>
	</g>
</g>
</svg>
